<svg xmlns="http://www.w3.org/2000/svg" version="1.1" xmlns:xlink="http://www.w3.org/1999/xlink" xmlns:svgjs="http://svgjs.dev/svgjs" width="2000" height="1500" viewBox="0 0 2000 1500"><rect width="2000" height="1500" fill="#ffffff"></rect><g transform="matrix(0.75,0,0,0.75,249.090909090909,282.7536437246963)"><svg viewBox="0 0 396 247" data-background-color="#ffffff" preserveAspectRatio="xMidYMid meet" height="1247" width="2000" xmlns="http://www.w3.org/2000/svg" xmlns:xlink="http://www.w3.org/1999/xlink"><g id="tight-bounds" transform="matrix(1,0,0,1,0.2400000000000091,-0.09999999999999432)"><svg viewBox="0 0 395.52 247.2" height="247.2" width="395.52"><g><svg></svg></g><g><svg viewBox="0 0 395.52 247.2" height="247.2" width="395.52"><g transform="matrix(1,0,0,1,75.54432,72.99795576986739)"><svg viewBox="0 0 244.43135999999998 101.2040884602652" height="101.2040884602652" width="244.43135999999998"><g><svg viewBox="0 0 368.9740371439352 152.7696" height="101.2040884602652" width="244.43135999999998"><g><svg viewBox="0 0 205.75327630057802 152.7696" height="152.7696" width="205.75327630057802"><g id="textblocktransform"><svg viewBox="0 0 205.75327630057802 152.7696" height="152.7696" width="205.75327630057802" id="textblock"><g><svg viewBox="0 0 205.75327630057802 152.7696" height="152.7696" width="205.75327630057802"><g transform="matrix(1,0,0,1,0,0)"><svg width="205.75327630057802" viewBox="1.95 -33.65 58.25 43.25" height="152.7696" data-palette-color="#7c6a46"><path d="M7.6 5.85L7.6 5.85Q9.35 8.2 12.65 8.2 15.95 8.2 17.7 5.98 19.45 3.75 19.45 0.2 19.45-3.35 17.13-5.43 14.8-7.5 10.95-7.5L10.95-7.5Q9.75-7.5 8.7-7.3L8.7-7.3 8.7-8.7Q12.85-8.9 15.73-11.23 18.6-13.55 18.6-17.8L18.6-17.8Q18.6-20.55 17.07-22.08 15.55-23.6 13.25-23.6 10.95-23.6 9.3-21.7L9.3-21.7Q8.1-20.4 8.1-18.3L8.1-18.3Q8.1-17.5 8.3-16.55L8.3-16.55Q7.25-16.1 6.48-16.1 5.7-16.1 5.15-16.4L5.15-16.4Q3.9-17.1 3.9-18.9L3.9-18.9Q3.9-21.65 6.73-23.35 9.55-25.05 12.8-25.05 16.05-25.05 18.23-24.35 20.4-23.65 22-21.8 23.6-19.95 23.6-17.18 23.6-14.4 21.58-11.93 19.55-9.45 16-8.85L16-8.85Q19.75-8.45 22.18-6.25 24.6-4.05 24.6 0 24.6 4.05 21.28 6.83 17.95 9.6 12.63 9.6 7.3 9.6 4.63 7.78 1.95 5.95 1.95 3.1L1.95 3.1Q1.95 1.35 3.1 0.5L3.1 0.5Q3.75 0 4.63 0 5.5 0 6.4 0.25L6.4 0.25Q6.3 1 6.3 1.65L6.3 1.65Q6.3 4.05 7.6 5.85ZM38.4-31.95L38.4-17.6 40.9-17.6Q49.85-17.6 49.85-25.1L49.85-25.1Q49.85-28.8 48.1-30.48 46.35-32.15 42.5-32.15L42.5-32.15Q41-32.15 38.4-31.95L38.4-31.95ZM35.75-33.5L38.3-33.5 44-33.65Q55.35-33.65 55.35-25.1L55.35-25.1Q55.35-21.4 52.82-19.03 50.3-16.65 46.3-16.65L46.3-16.65Q45.95-16.65 45.05-16.75L45.05-16.75 45.05-16.65Q50.4-15.9 52.42-13.18 54.45-10.45 54.45-4.85L54.45-4.85Q54.45-1.35 55.75-0.8L55.75-0.8Q56.35-0.4 57.42-0.4 58.5-0.4 60.2-1.05L60.2-1.05 60.2 0.2Q57.55 1.15 55.35 1.15L55.35 1.15Q50.45 1.15 49.3-3.05L49.3-3.05Q49-4.15 48.97-6.15 48.95-8.15 48.8-9.7 48.65-11.25 48.1-12.8L48.1-12.8Q46.85-16.15 41.2-16.15L41.2-16.15 38.4-16.15 38.4-1.45 42.25-1.1 42.25 0 29.5 0 29.5-1.05 33.25-1.45 33.25-31.85 28.9-32.35 28.9-33.65Q32.1-33.5 35.75-33.5L35.75-33.5Z" opacity="1" transform="matrix(1,0,0,1,0,0)" fill="#7c6a46" class="wordmark-text-0" data-fill-palette-color="primary" id="text-0"></path></svg></g></svg></g></svg></g></svg></g><g transform="matrix(1,0,0,1,241.81851239017803,24.42281638830714)"><svg viewBox="0 0 127.1555247537572 103.92396722338572" height="103.92396722338572" width="127.1555247537572"><g><svg xmlns="http://www.w3.org/2000/svg" xmlns:xlink="http://www.w3.org/1999/xlink" version="1.1" x="0" y="0" viewBox="2.324 13.865154105392056 73.10900000000001 59.751845894607946" enable-background="new 0 0 80 80" xml:space="preserve" height="103.92396722338572" width="127.1555247537572" class="icon-icon-0" data-fill-palette-color="accent" id="icon-0"><path d="M74.289 65.7c-0.533 0-0.977 0.367-1.104 0.86L51.367 41.963l-0.426-0.845c-0.02-0.087-0.047-0.173-0.089-0.257L40.133 19.565l2.035-4.042c0.284-0.563 0.057-1.251-0.507-1.535-0.563-0.284-1.251-0.058-1.535 0.507l-1.272 2.528-1.272-2.528c-0.284-0.564-0.971-0.792-1.535-0.507-0.564 0.284-0.791 0.971-0.507 1.534l2.035 4.042L26.855 40.861c-0.02 0.039-0.032 0.08-0.046 0.121l-0.592 1.176L4.571 66.561c-0.127-0.493-0.57-0.86-1.104-0.86-0.631 0-1.143 0.512-1.143 1.143v5.63c0 0.631 0.512 1.143 1.143 1.143s1.143-0.512 1.143-1.143V69.96l17.598-19.839L11.596 71.207H7.017c-0.631 0-1.143 0.512-1.143 1.143s0.512 1.143 1.143 1.143h20.411 22.826 2.011 17.73c0.632 0 1.144-0.512 1.144-1.143s-0.512-1.143-1.144-1.143h-3.908l-10.712-21.28L73.146 69.96v2.513c0 0.631 0.513 1.143 1.144 1.143 0.632 0 1.143-0.512 1.143-1.143v-5.63C75.432 66.212 74.921 65.7 74.289 65.7zM29.283 71.207l9.558-18.99 9.558 18.99H29.283zM52.265 71.207h-1.307L39.862 49.16c-0.194-0.385-0.589-0.629-1.021-0.629s-0.827 0.244-1.021 0.629L26.724 71.207H14.155l13.97-27.756 0.073-0.082c0.159-0.179 0.25-0.395 0.278-0.615l10.365-20.593 24.687 49.046H52.265z" fill="#454545" data-fill-palette-color="accent"></path></svg></g></svg></g></svg></g></svg></g><g><path d="M100.872 49.106A122.216 122.216 0 0 1 294.648 49.106L285.522 49.106A113.089 113.089 0 0 0 109.998 49.106L100.872 49.106M100.872 198.094A122.216 122.216 0 0 0 294.648 198.094L285.522 198.094A113.089 113.089 0 0 1 109.998 198.094L100.872 198.094" fill="#7c6a46" stroke="transparent" data-fill-palette-color="tertiary"></path></g></svg></g><defs></defs></svg><rect width="395.52" height="247.2" fill="none" stroke="none" visibility="hidden"></rect></g></svg></g></svg>